<?xml version="1.0" encoding="utf-8"?>
<!-- Generator: Adobe Illustrator 24.0.2, SVG Export Plug-In . SVG Version: 6.00 Build 0)  -->
<svg version="1.1" id="Calque_1" xmlns="http://www.w3.org/2000/svg" xmlns:link="http://www.w3.org/1999/xlink" x="0px" y="0px"
	 viewBox="0 0 24 24" style="enable-background:new 0 0 24 24;" xml:space="preserve">
<style type="text/css">
	.st0{fill:#21838A;stroke:#21838A;stroke-miterlimit:10;}
</style>
<path class="st0" d="M21.4,13.7C20.6,13.9,19.8,14,19,14c-5,0-9-4-9-9c0-0.8,0.1-1.6,0.3-2.4c0.1-0.3,0-0.7-0.3-1S9.4,1.2,9,1.3
	C4.3,2.7,1,7.1,1,12c0,6.1,4.9,11,11,11c4.9,0,9.3-3.3,10.6-8.1c0.1-0.3,0-0.7-0.3-1C22.1,13.7,21.7,13.6,21.4,13.7z"/>
</svg>
