<?xml version="1.0" encoding="utf-8"?>
<!-- Generator: Adobe Illustrator 24.0.2, SVG Export Plug-In . SVG Version: 6.00 Build 0)  -->
<svg version="1.1" id="Calque_1" xmlns="http://www.w3.org/2000/svg" xmlns:link="http://www.w3.org/1999/xlink" x="0px" y="0px"
	 viewBox="0 0 24 24" style="enable-background:new 0 0 24 24;" xml:space="preserve">
<style type="text/css">
	.st0{fill:#E5BBAB;stroke:#E5BBAB;stroke-miterlimit:10;}
</style>
<path class="st0" d="M0,11h3v2H0V11z M2.8,4.2l1.4-1.4l2.1,2.1L4.9,6.3L2.8,4.2L2.8,4.2z M11,0h2v3h-2V0z M17.7,4.9l2.1-2.1l1.4,1.4
	l-2.1,2.1L17.7,4.9z M21,11h3v2h-3V11z M17.7,19.1l1.4-1.4l2.1,2.1l-1.4,1.4L17.7,19.1L17.7,19.1z M11,21h2v3h-2V21z M2.8,19.8
	l2.1-2.1l1.4,1.4l-2.1,2.1C4.2,21.2,2.8,19.8,2.8,19.8z M12,19c-3.9,0-7-3.1-7-7s3.1-7,7-7s7,3.1,7,7S15.9,19,12,19z"/>
</svg>
